<svg width="594" height="50" viewBox="0 0 594 50" fill="none" xmlns="http://www.w3.org/2000/svg">
<path d="M592.5 0V2.5H593.5V0L592.5 0ZM592.5 5C592.5 6.74683 592.27 8.43927 591.84 10.0491L592.806 10.3074C593.259 8.61403 593.5 6.83479 593.5 5H592.5ZM586.789 18.7886C584.403 21.1737 581.404 22.9433 578.049 23.8401L578.307 24.8062C581.836 23.8629 584.989 22.002 587.496 19.4957L586.789 18.7886ZM573 24.5H567.982V25.5H573V24.5ZM557.945 24.5H547.909V25.5H557.945V24.5ZM537.873 24.5H527.836V25.5H537.873V24.5ZM517.8 24.5H507.764V25.5H517.8V24.5ZM497.727 24.5H487.691V25.5H497.727V24.5ZM477.655 24.5H467.618V25.5H477.655V24.5ZM457.582 24.5L447.545 24.5V25.5L457.582 25.5V24.5ZM437.509 24.5H427.473V25.5H437.509V24.5ZM417.436 24.5H407.4V25.5H417.436V24.5ZM397.364 24.5L387.327 24.5V25.5L397.364 25.5V24.5ZM377.291 24.5H367.255V25.5H377.291V24.5ZM357.218 24.5H347.182V25.5H357.218V24.5ZM337.145 24.5L327.109 24.5V25.5L337.145 25.5V24.5ZM317.073 24.5H307.036V25.5H317.073V24.5ZM297 24.5H286.964V25.5H297V24.5ZM276.927 24.5L266.891 24.5V25.5L276.927 25.5V24.5ZM256.855 24.5H246.818V25.5H256.855V24.5ZM236.782 24.5H226.745V25.5H236.782V24.5ZM216.709 24.5L206.673 24.5V25.5L216.709 25.5V24.5ZM196.636 24.5H186.6V25.5H196.636V24.5ZM176.564 24.5H166.527V25.5H176.564V24.5ZM156.491 24.5H146.454V25.5H156.491V24.5ZM136.418 24.5H126.382V25.5H136.418V24.5ZM116.345 24.5H106.309V25.5H116.345V24.5ZM96.2725 24.5H86.2361V25.5H96.2725V24.5ZM76.1998 24.5H66.1634V25.5H76.1998V24.5ZM56.127 24.5H46.0906V25.5H56.127V24.5ZM36.0543 24.5H26.0179V25.5H36.0543V24.5ZM21 24.5C19.1652 24.5 17.386 24.7412 15.6926 25.1938L15.9509 26.1599C17.5607 25.7296 19.2532 25.5 21 25.5V24.5ZM6.50433 30.5043C3.99799 33.0106 2.13708 36.1637 1.19379 39.6926L2.15991 39.9509C3.0567 36.5958 4.82629 33.5965 7.21143 31.2114L6.50433 30.5043ZM0.5 45V47.5H1.5V45H0.5Z" fill="#AD8BFF"/>
<g clip-path="url(#clip0_5222_42196)">
<rect x="244" y="11" width="28" height="28" rx="8.96" fill="#AD8BFF"/>
<mask id="mask0_5222_42196" style="mask-type:alpha" maskUnits="userSpaceOnUse" x="252" y="19" width="13" height="13">
<rect x="252.38" y="19.0001" width="12.0001" height="12.0001" fill="#D9D9D9"/>
</mask>
<g mask="url(#mask0_5222_42196)">
<path d="M253.88 24.5001V20.5001H257.88V24.5001H253.88ZM253.88 29.5002V25.5001H257.88V29.5002H253.88ZM258.88 24.5001V20.5001H262.88V24.5001H258.88ZM258.88 29.5002V25.5001H262.88V29.5002H258.88ZM254.88 23.5001H256.88V21.5001H254.88V23.5001ZM259.88 23.5001H261.88V21.5001H259.88V23.5001ZM259.88 28.5002H261.88V26.5002H259.88V28.5002ZM254.88 28.5002H256.88V26.5002H254.88V28.5002Z" fill="#062526"/>
</g>
</g>
<defs>
<clipPath id="clip0_5222_42196">
<rect width="28" height="28" fill="white" transform="translate(244 11)"/>
</clipPath>
</defs>
</svg>
