<svg width="83" height="122" viewBox="0 0 83 122" fill="none" xmlns="http://www.w3.org/2000/svg">
<path d="M82.3536 118.354C82.5488 118.158 82.5488 117.842 82.3536 117.646L79.1716 114.464C78.9763 114.269 78.6597 114.269 78.4645 114.464C78.2692 114.66 78.2692 114.976 78.4645 115.172L81.2929 118L78.4645 120.828C78.2692 121.024 78.2692 121.34 78.4645 121.536C78.6597 121.731 78.9763 121.731 79.1716 121.536L82.3536 118.354ZM0 1.5H5.25V0.5H0V1.5ZM15.75 1.5H21V0.5H15.75V1.5ZM21 1.5C22.7468 1.5 24.4393 1.72956 26.0491 2.15989L26.3074 1.19381C24.614 0.741169 22.8348 0.5 21 0.5V1.5ZM34.7886 7.21142C37.1737 9.59652 38.9433 12.5958 39.8401 15.9509L40.8062 15.6926C39.8629 12.1637 38.002 9.01064 35.4957 6.50431L34.7886 7.21142ZM40.5 21V25.8125H41.5V21H40.5ZM40.5 35.4375V45.0625H41.5V35.4375H40.5ZM40.5 54.6875V64.3125H41.5V54.6875H40.5ZM40.5 73.9375V83.5625H41.5V73.9375H40.5ZM40.5 93.1875V98H41.5V93.1875H40.5ZM40.5 98C40.5 99.8348 40.7412 101.614 41.1938 103.307L42.1599 103.049C41.7296 101.439 41.5 99.7468 41.5 98H40.5ZM46.5043 112.496C49.0106 115.002 52.1637 116.863 55.6926 117.806L55.9509 116.84C52.5958 115.943 49.5965 114.174 47.2114 111.789L46.5043 112.496ZM61 118.5H66.25V117.5H61V118.5ZM76.75 118.5H82V117.5H76.75V118.5Z" fill="#AD8BFF"/>
<g clip-path="url(#clip0_5222_42197)">
<rect x="27" y="46" width="28" height="28" rx="8.96" fill="#AD8BFF"/>
<mask id="mask0_5222_42197" style="mask-type:alpha" maskUnits="userSpaceOnUse" x="35" y="54" width="13" height="13">
<rect x="35.3799" y="54.0001" width="12.0001" height="12.0001" fill="#D9D9D9"/>
</mask>
<g mask="url(#mask0_5222_42197)">
<path d="M40.9299 63.5002H41.8049V62.8752C42.2216 62.8002 42.5799 62.6377 42.8799 62.3877C43.1799 62.1377 43.3299 61.7668 43.3299 61.2752C43.3299 60.9252 43.2299 60.6043 43.0299 60.3126C42.8299 60.021 42.4299 59.7668 41.8299 59.5501C41.3299 59.3835 40.9841 59.2376 40.7924 59.1126C40.6007 58.9876 40.5049 58.8168 40.5049 58.6001C40.5049 58.3835 40.5821 58.2126 40.7364 58.0876C40.8904 57.9626 41.1132 57.9001 41.4049 57.9001C41.6716 57.9001 41.8799 57.9648 42.0299 58.0941C42.1799 58.2231 42.2882 58.3835 42.3549 58.5751L43.1549 58.2501C43.0632 57.9585 42.8946 57.7043 42.6489 57.4876C42.4029 57.271 42.1299 57.1501 41.8299 57.1251V56.5001H40.9549V57.1251C40.5382 57.2168 40.2132 57.4001 39.9799 57.6751C39.7466 57.9501 39.6299 58.2585 39.6299 58.6001C39.6299 58.9918 39.7446 59.3085 39.9739 59.5501C40.2029 59.7918 40.5632 60.0001 41.0549 60.1751C41.5799 60.3668 41.9446 60.5376 42.1489 60.6877C42.3529 60.8377 42.4549 61.0335 42.4549 61.2752C42.4549 61.5502 42.3569 61.7522 42.1609 61.8812C41.9652 62.0105 41.7299 62.0752 41.4549 62.0752C41.1799 62.0752 40.9362 61.9897 40.7239 61.8187C40.5112 61.648 40.3549 61.3918 40.2549 61.0502L39.4299 61.3752C39.5466 61.7752 39.7279 62.0982 39.9739 62.3442C40.2196 62.5898 40.5382 62.7585 40.9299 62.8502V63.5002ZM41.3799 65.0002C40.6882 65.0002 40.0382 64.8688 39.4299 64.6062C38.8216 64.3438 38.2924 63.9877 37.8424 63.5377C37.3924 63.0877 37.0362 62.5585 36.7739 61.9502C36.5112 61.3418 36.3799 60.6918 36.3799 60.0001C36.3799 59.3085 36.5112 58.6585 36.7739 58.0501C37.0362 57.4418 37.3924 56.9126 37.8424 56.4626C38.2924 56.0126 38.8216 55.6563 39.4299 55.3936C40.0382 55.1313 40.6882 55.0001 41.3799 55.0001C42.0716 55.0001 42.7216 55.1313 43.3299 55.3936C43.9383 55.6563 44.4674 56.0126 44.9174 56.4626C45.3674 56.9126 45.7236 57.4418 45.9859 58.0501C46.2486 58.6585 46.3799 59.3085 46.3799 60.0001C46.3799 60.6918 46.2486 61.3418 45.9859 61.9502C45.7236 62.5585 45.3674 63.0877 44.9174 63.5377C44.4674 63.9877 43.9383 64.3438 43.3299 64.6062C42.7216 64.8688 42.0716 65.0002 41.3799 65.0002ZM41.3799 64.0002C42.4966 64.0002 43.4424 63.6127 44.2174 62.8377C44.9924 62.0627 45.3799 61.1168 45.3799 60.0001C45.3799 58.8835 44.9924 57.9376 44.2174 57.1626C43.4424 56.3876 42.4966 56.0001 41.3799 56.0001C40.2632 56.0001 39.3174 56.3876 38.5424 57.1626C37.7674 57.9376 37.3799 58.8835 37.3799 60.0001C37.3799 61.1168 37.7674 62.0627 38.5424 62.8377C39.3174 63.6127 40.2632 64.0002 41.3799 64.0002Z" fill="#062526"/>
</g>
</g>
<defs>
<clipPath id="clip0_5222_42197">
<rect width="28" height="28" fill="white" transform="translate(27 46)"/>
</clipPath>
</defs>
</svg>
