<svg width="274" height="89" viewBox="0 0 274 89" fill="none" xmlns="http://www.w3.org/2000/svg">
<path d="M3.64642 88.3536C3.84171 88.5488 4.15829 88.5488 4.35355 88.3536L7.53552 85.1716C7.73077 84.9763 7.73077 84.6597 7.53552 84.4645C7.34027 84.2692 7.02368 84.2692 6.82843 84.4645L4 87.2929L1.17157 84.4645C0.976288 84.2692 0.659729 84.2692 0.464447 84.4645C0.269196 84.6597 0.269196 84.9763 0.464447 85.1716L3.64642 88.3536ZM272.5 0V6H273.5V0L272.5 0ZM272.5 18V24H273.5V18H272.5ZM272.5 24C272.5 25.7468 272.27 27.4393 271.84 29.0491L272.806 29.3074C273.259 27.614 273.5 25.8348 273.5 24H272.5ZM266.789 37.7886C264.403 40.1737 261.404 41.9433 258.049 42.8401L258.307 43.8062C261.836 42.8629 264.989 41.002 267.496 38.4957L266.789 37.7886ZM253 43.5H248.022V44.5H253V43.5ZM238.065 43.5H228.109V44.5H238.065V43.5ZM218.152 43.5L208.196 43.5V44.5L218.152 44.5V43.5ZM198.239 43.5H188.283V44.5H198.239V43.5ZM178.326 43.5H168.37V44.5H178.326V43.5ZM158.413 43.5H148.457V44.5H158.413V43.5ZM138.5 43.5H128.543V44.5H138.5V43.5ZM118.587 43.5H108.63V44.5H118.587V43.5ZM98.6739 43.5H88.7174V44.5H98.6739V43.5ZM78.7609 43.5H68.8043V44.5H78.7609V43.5ZM58.8478 43.5H48.8913V44.5H58.8478V43.5ZM38.9348 43.5H28.9782V44.5H38.9348V43.5ZM24 43.5C22.1652 43.5 20.386 43.7412 18.6926 44.1938L18.9509 45.1599C20.5607 44.7296 22.2532 44.5 24 44.5V43.5ZM9.5043 49.5043C6.99799 52.0106 5.13708 55.1637 4.19382 58.6926L5.15988 58.9509C6.0567 55.5958 7.82629 52.5965 10.2114 50.2114L9.5043 49.5043ZM3.5 64V70H4.5V64H3.5ZM3.5 82V88H4.5V82H3.5Z" fill="#AD8BFF"/>
<g clip-path="url(#clip0_5222_42198)">
<rect x="125" y="30" width="28" height="28" rx="8.96" fill="#AD8BFF"/>
<mask id="mask0_5222_42198" style="mask-type:alpha" maskUnits="userSpaceOnUse" x="133" y="38" width="13" height="13">
<rect x="133.38" y="38.0001" width="12.0001" height="12.0001" fill="#D9D9D9"/>
</mask>
<g mask="url(#mask0_5222_42198)">
<path d="M137.13 41.0001C136.922 41.0001 136.745 41.0731 136.599 41.2191C136.453 41.3648 136.38 41.5418 136.38 41.7501C136.38 41.9585 136.453 42.1355 136.599 42.2811C136.745 42.4271 136.922 42.5001 137.13 42.5001C137.338 42.5001 137.515 42.4271 137.661 42.2811C137.807 42.1355 137.88 41.9585 137.88 41.7501C137.88 41.5418 137.807 41.3648 137.661 41.2191C137.515 41.0731 137.338 41.0001 137.13 41.0001ZM137.13 46.0002C136.922 46.0002 136.745 46.0732 136.599 46.2192C136.453 46.3648 136.38 46.5418 136.38 46.7502C136.38 46.9585 136.453 47.1355 136.599 47.2812C136.745 47.4272 136.922 47.5002 137.13 47.5002C137.338 47.5002 137.515 47.4272 137.661 47.2812C137.807 47.1355 137.88 46.9585 137.88 46.7502C137.88 46.5418 137.807 46.3648 137.661 46.2192C137.515 46.0732 137.338 46.0002 137.13 46.0002ZM135.38 39.5001H143.38C143.522 39.5001 143.64 39.548 143.736 39.6436C143.832 39.7396 143.88 39.8585 143.88 40.0001V43.5001C143.88 43.6418 143.832 43.7605 143.736 43.8561C143.64 43.9521 143.522 44.0001 143.38 44.0001H135.38C135.238 44.0001 135.12 43.9521 135.024 43.8561C134.928 43.7605 134.88 43.6418 134.88 43.5001V40.0001C134.88 39.8585 134.928 39.7396 135.024 39.6436C135.12 39.548 135.238 39.5001 135.38 39.5001ZM135.88 40.5001V43.0001H142.88V40.5001H135.88ZM135.38 44.5001H143.38C143.522 44.5001 143.64 44.548 143.736 44.6436C143.832 44.7396 143.88 44.8585 143.88 45.0001V48.5002C143.88 48.6418 143.832 48.7605 143.736 48.8562C143.64 48.9522 143.522 49.0002 143.38 49.0002H135.38C135.238 49.0002 135.12 48.9522 135.024 48.8562C134.928 48.7605 134.88 48.6418 134.88 48.5002V45.0001C134.88 44.8585 134.928 44.7396 135.024 44.6436C135.12 44.548 135.238 44.5001 135.38 44.5001ZM135.88 45.5002V48.0002H142.88V45.5002H135.88Z" fill="#062526"/>
</g>
</g>
<defs>
<clipPath id="clip0_5222_42198">
<rect width="28" height="28" fill="white" transform="translate(125 30)"/>
</clipPath>
</defs>
</svg>
