<svg width="83" height="122" viewBox="0 0 83 122" fill="none" xmlns="http://www.w3.org/2000/svg">
<path d="M82.3536 118.354C82.5488 118.158 82.5488 117.842 82.3536 117.646L79.1716 114.464C78.9763 114.269 78.6597 114.269 78.4645 114.464C78.2692 114.66 78.2692 114.976 78.4645 115.172L81.2929 118L78.4645 120.828C78.2692 121.024 78.2692 121.34 78.4645 121.536C78.6597 121.731 78.9763 121.731 79.1716 121.536L82.3536 118.354ZM0 1.5H5.25V0.5H0V1.5ZM15.75 1.5H21V0.5H15.75V1.5ZM21 1.5C22.7468 1.5 24.4393 1.72956 26.0491 2.15989L26.3074 1.19381C24.614 0.741169 22.8348 0.5 21 0.5V1.5ZM34.7886 7.21142C37.1737 9.59652 38.9433 12.5958 39.8401 15.9509L40.8062 15.6926C39.8629 12.1637 38.002 9.01064 35.4957 6.50431L34.7886 7.21142ZM40.5 21V25.8125H41.5V21H40.5ZM40.5 35.4375V45.0625H41.5V35.4375H40.5ZM40.5 54.6875V64.3125H41.5V54.6875H40.5ZM40.5 73.9375V83.5625H41.5V73.9375H40.5ZM40.5 93.1875V98H41.5V93.1875H40.5ZM40.5 98C40.5 99.8348 40.7412 101.614 41.1938 103.307L42.1599 103.049C41.7296 101.439 41.5 99.7468 41.5 98H40.5ZM46.5043 112.496C49.0106 115.002 52.1637 116.863 55.6926 117.806L55.9509 116.84C52.5958 115.943 49.5965 114.174 47.2114 111.789L46.5043 112.496ZM61 118.5H66.25V117.5H61V118.5ZM76.75 118.5H82V117.5H76.75V118.5Z" fill="#AD8BFF"/>
<g clip-path="url(#clip0_5222_42195)">
<rect x="27" y="46" width="28" height="28" rx="8.96" fill="#AD8BFF"/>
<mask id="mask0_5222_42195" style="mask-type:alpha" maskUnits="userSpaceOnUse" x="35" y="54" width="13" height="13">
<rect x="35.3799" y="54.0001" width="12.0001" height="12.0001" fill="#D9D9D9"/>
</mask>
<g mask="url(#mask0_5222_42195)">
<path d="M39.3799 63.0002H43.3799V62.0002H39.3799V63.0002ZM39.3799 61.0002H43.3799V60.0001H39.3799V61.0002ZM38.3799 65.0002C38.1049 65.0002 37.8696 64.9023 37.6739 64.7067C37.4779 64.5107 37.3799 64.2752 37.3799 64.0002V56.0001C37.3799 55.7251 37.4779 55.4896 37.6739 55.2936C37.8696 55.098 38.1049 55.0001 38.3799 55.0001H42.3799L45.3799 58.0001V64.0002C45.3799 64.2752 45.2821 64.5107 45.0864 64.7067C44.8904 64.9023 44.6549 65.0002 44.3799 65.0002H38.3799ZM41.8799 58.5001V56.0001H38.3799V64.0002H44.3799V58.5001H41.8799Z" fill="#062526"/>
</g>
</g>
<defs>
<clipPath id="clip0_5222_42195">
<rect width="28" height="28" fill="white" transform="translate(27 46)"/>
</clipPath>
</defs>
</svg>
