<svg width="267" height="33" viewBox="0 0 267 33" fill="none" xmlns="http://www.w3.org/2000/svg">
<mask id="path-1-inside-1_5221_11115" fill="white">
<path fill-rule="evenodd" clip-rule="evenodd" d="M133.85 7.01998C133.428 7.01998 133.029 7.18746 132.769 7.46589C132.456 7.76422 132.29 8.15252 132.29 8.58819V25.2891C132.29 25.719 132.452 26.1094 132.737 26.3791C133.034 26.6942 133.42 26.8617 133.854 26.8617C134.281 26.8617 134.671 26.6974 134.939 26.4114C135.253 26.1126 135.419 25.7249 135.419 25.2891V8.58819C135.419 8.16328 135.257 7.77231 134.961 7.48635C134.675 7.18962 134.271 7.01998 133.85 7.01998Z"/>
<path fill-rule="evenodd" clip-rule="evenodd" d="M129.148 2.19211C128.024 2.19211 127.108 3.11246 127.108 4.24392C127.108 5.37483 128.024 6.29572 129.148 6.29572C130.275 6.29572 131.191 5.37537 131.191 4.24392C131.191 3.11246 130.274 2.19211 129.148 2.19211Z"/>
<path fill-rule="evenodd" clip-rule="evenodd" d="M64.8588 14.5688C64.2743 15.1014 63.5857 15.3706 62.7605 15.3916L58.4393 15.3911V10.1226H62.6587C63.5075 10.1226 64.2411 10.393 64.8396 10.9261C65.4177 11.4415 65.6985 12.0403 65.6985 12.7566C65.6985 13.4599 65.4236 14.0528 64.8588 14.5688ZM66.9974 8.65942C65.8004 7.54359 64.3406 6.97759 62.6587 6.97759H56.8746C56.452 6.97759 56.0528 7.14561 55.7902 7.42834C55.4762 7.72615 55.3094 8.11444 55.3094 8.55011V18.5199L63.0461 18.5184C64.6251 18.4246 65.9896 17.8302 67.1015 16.752C68.2395 15.6383 68.8156 14.2946 68.8156 12.7566C68.8156 11.1604 68.2034 9.7828 66.9974 8.65942Z"/>
<path fill-rule="evenodd" clip-rule="evenodd" d="M216.153 16.8537C216.153 16.7886 216.153 16.7234 216.153 16.6566L216.136 16.1332L213.812 16.1343L213.035 16.1714L213.034 17.2743C212.959 19.0126 212.292 20.5217 211.051 21.7624C209.735 23.0856 208.125 23.7567 206.267 23.7567H205.464V26.872L206.078 26.8942C206.139 26.8984 206.203 26.9023 206.267 26.9023C206.331 26.9023 206.392 26.8984 206.452 26.8942L206.548 26.8898C209.156 26.8231 211.416 25.8467 213.266 23.9887C215.116 22.1303 216.087 19.8533 216.153 17.2232C216.155 17.1693 216.155 17.116 216.153 17.0336V16.8537Z"/>
<path fill-rule="evenodd" clip-rule="evenodd" d="M260.514 12.6867L262.689 17.9561H266.057L261.944 7.96697C261.867 7.79948 261.762 7.57115 261.538 7.37942C261.248 7.13225 260.837 7.00406 260.404 7.02938C260.071 7.04608 259.825 7.17533 259.667 7.27011C259.628 7.2938 259.584 7.32395 259.566 7.34012C259.358 7.4952 259.197 7.70416 259.074 7.98635L254.96 17.9561H258.339L260.514 12.6867Z"/>
<path fill-rule="evenodd" clip-rule="evenodd" d="M90.2605 21.7543C88.9439 23.0774 87.3336 23.7491 85.4758 23.7491C83.618 23.7491 82.0084 23.0774 80.6913 21.7543C79.3747 20.4307 78.707 18.8128 78.707 16.9463C78.707 15.0781 79.3752 13.4604 80.6928 12.1356C82.0094 10.8049 83.6185 10.1301 85.4758 10.1301C87.3336 10.1301 88.9432 10.8054 90.262 12.1388C91.5862 13.4625 92.2576 15.0797 92.2576 16.9463C92.2576 18.8123 91.5862 20.429 90.262 21.7528L90.2605 21.7543ZM92.4751 9.91144C90.5524 7.9781 88.1969 6.99796 85.4758 6.99796C82.7542 6.99796 80.3997 7.9781 78.4761 9.91144C76.5524 11.8448 75.5766 14.2122 75.5766 16.9463C75.5766 19.6804 76.5529 22.0472 78.4761 23.9806C80.3997 25.9139 82.7542 26.894 85.4758 26.894C88.1969 26.894 90.5519 25.9139 92.4751 23.9806C94.3994 22.0472 95.3747 19.681 95.3747 16.9463C95.3747 14.2122 94.3994 11.8448 92.4751 9.91144Z"/>
<path fill-rule="evenodd" clip-rule="evenodd" d="M112.816 10.1102C113.71 10.1102 114.511 10.2804 115.196 10.6175C115.934 10.9724 116.373 11.4571 116.539 12.098C116.641 12.5116 116.893 12.8514 117.239 13.0501C117.606 13.2774 118.032 13.3366 118.429 13.2219C118.84 13.118 119.165 12.8761 119.4 12.4949C119.606 12.1308 119.658 11.7355 119.555 11.3155C119.167 9.82697 118.23 8.68152 116.77 7.91357C115.608 7.29264 114.278 6.97759 112.816 6.97759C111.102 6.97759 109.61 7.55006 108.381 8.67936C107.131 9.81781 106.458 11.2336 106.381 12.8875C106.32 14.2726 106.786 15.5042 107.765 16.5468C108.947 17.814 110.691 18.4694 112.949 18.4978L113.096 18.4995C114.422 18.534 115.381 18.8598 115.95 19.472C116.337 19.8798 116.514 20.3267 116.491 20.8363C116.451 21.6478 116.123 22.3188 115.49 22.8886C114.851 23.4627 114.07 23.7534 113.171 23.7534C112.273 23.7534 111.473 23.5876 110.796 23.2629C110.055 22.8994 109.614 22.4076 109.445 21.7555C109.341 21.3537 109.097 21.0317 108.709 20.7931C108.342 20.5933 107.942 20.5411 107.559 20.6418C107.146 20.7457 106.818 20.9913 106.58 21.3833C106.378 21.7544 106.327 22.147 106.431 22.5493C106.819 24.0372 107.757 25.1859 109.22 25.9646C110.381 26.5765 111.71 26.8867 113.172 26.8867C114.885 26.8867 116.377 26.3142 117.606 25.1854C118.856 24.0458 119.525 22.6307 119.593 20.9821C119.663 19.5922 119.202 18.3628 118.223 17.3298C117.048 16.0713 115.316 15.411 113.076 15.3658L113.018 15.3459L112.944 15.3653C111.591 15.3389 110.613 15.0125 110.036 14.391C109.65 13.9855 109.473 13.5434 109.497 13.0388C109.537 12.2202 109.864 11.5449 110.498 10.9757C111.138 10.4016 111.917 10.1102 112.816 10.1102Z"/>
<path fill-rule="evenodd" clip-rule="evenodd" d="M160.064 7.00387L150.023 6.97801C149.622 6.96832 149.207 7.12611 148.906 7.42822C148.593 7.72657 148.427 8.11432 148.427 8.55107V25.3274C148.427 25.7572 148.59 26.1486 148.875 26.4185C149.171 26.733 149.557 26.9 149.991 26.9C150.419 26.9 150.808 26.7362 151.076 26.4497C151.39 26.1513 151.556 25.7642 151.556 25.3274V18.5118H157.716C158.144 18.5118 158.532 18.348 158.801 18.0615C159.115 17.7632 159.281 17.376 159.281 16.9392C159.281 16.5149 159.113 16.1137 158.833 15.8493C158.536 15.5337 158.149 15.3667 157.716 15.3667H151.556V10.1257L160.063 10.1494C160.488 10.1494 160.868 9.99326 161.162 9.6976C161.467 9.39333 161.628 9.00612 161.628 8.57691C161.628 8.1574 161.471 7.77827 161.179 7.48586C160.883 7.17026 160.497 7.00439 160.064 7.00387Z"/>
<path fill-rule="evenodd" clip-rule="evenodd" d="M182.608 23.7643H175.18V8.61112C175.18 8.17762 175.028 7.80549 174.728 7.50553C174.44 7.2131 174.046 7.05153 173.622 7.05153C173.204 7.05153 172.8 7.21688 172.513 7.50445C172.213 7.80549 172.062 8.17762 172.062 8.61112V25.324C172.062 25.7489 172.217 26.1269 172.53 26.4591C172.837 26.7495 173.206 26.8965 173.627 26.8965H182.608C183.041 26.8965 183.41 26.7446 183.71 26.443C184.013 26.1388 184.173 25.7516 184.173 25.324C184.173 24.905 184.013 24.5221 183.71 24.2173C183.41 23.9163 183.039 23.7643 182.608 23.7643Z"/>
<path fill-rule="evenodd" clip-rule="evenodd" d="M233.097 10.1509C233.934 10.1509 234.66 10.4207 235.251 10.9544C235.821 11.4617 236.097 12.0524 236.097 12.7595C236.097 13.4537 235.826 14.0375 235.27 14.5458L235.266 14.5491C234.692 15.0774 234.01 15.3418 233.184 15.3558H228.913V10.1509H233.097ZM235.16 18.1557C236.152 17.8304 237.012 17.2724 237.719 16.4959C238.703 15.4285 239.201 14.1721 239.201 12.7595C239.201 11.1725 238.593 9.8019 237.394 8.68444C236.205 7.58745 234.759 7.03116 233.095 7.03116H227.348C226.935 7.03116 226.566 7.18193 226.248 7.48405C225.95 7.78509 225.796 8.15722 225.796 8.59075V25.2141C225.796 25.6316 225.951 26.0064 226.265 26.3376C226.878 26.9214 227.86 26.9143 228.449 26.3215C228.758 26.0128 228.913 25.6397 228.913 25.2141V18.489H231.847L235.541 26.0252C235.811 26.5826 236.319 26.9019 236.937 26.9019C237.182 26.9019 237.414 26.8476 237.628 26.7398C238.005 26.5493 238.268 26.2497 238.408 25.8492C238.546 25.4463 238.521 25.0327 238.332 24.6557L235.16 18.1557Z"/>
<path fill-rule="evenodd" clip-rule="evenodd" d="M198.396 21.7614C197.079 20.4383 196.412 18.8204 196.412 16.9529C196.412 15.0863 197.079 13.468 198.396 12.1427C199.715 10.8114 201.324 10.1372 203.18 10.1372C205.038 10.1372 206.649 10.8125 207.967 12.1459C209.079 13.2585 209.723 14.6 209.894 16.13H213.024C212.844 13.7303 211.894 11.6402 210.179 9.918C208.257 7.98465 205.902 7.00454 203.18 7.00454C200.458 7.00454 198.103 7.98465 196.181 9.918C194.256 11.8519 193.281 14.2182 193.281 16.9523C193.281 19.6865 194.256 22.0533 196.181 23.9872C198.029 25.8445 200.29 26.8214 202.899 26.8888L203.431 26.9016V23.7675L202.929 23.7508C201.177 23.6948 199.653 23.0253 198.396 21.7614Z"/>
<path fill-rule="evenodd" clip-rule="evenodd" d="M52.2177 18.5193V25.3174C52.2177 25.748 52.3811 26.1396 52.6646 26.4068C52.9614 26.7229 53.3478 26.8893 53.7824 26.8893C54.2106 26.8893 54.5995 26.7256 54.867 26.4391C55.181 26.1413 55.3471 25.7535 55.3471 25.3167V18.5193H52.2177Z"/>
<path fill-rule="evenodd" clip-rule="evenodd" d="M265.5 24.7218L262.714 17.961H259.337L260.076 19.7544L260.196 20.0458H254.129L254.875 18.2304L254.986 17.961H251.609L248.828 24.7122C248.656 25.1095 248.651 25.5415 248.816 25.9141C248.972 26.3164 249.269 26.6211 249.638 26.7639L249.779 26.8281L250.261 26.9002C250.928 26.9002 251.454 26.5463 251.703 25.9314L252.948 22.9215H261.377L262.62 25.925C262.871 26.5448 263.396 26.9002 264.062 26.9002C264.276 26.9002 264.49 26.8555 264.648 26.7805C265.042 26.625 265.352 26.3164 265.495 25.9442C265.669 25.5495 265.67 25.1161 265.5 24.7218Z"/>
<path d="M21.8062 16.4194C21.8062 19.6606 19.1732 22.2877 15.9249 22.2877C12.6763 22.2877 10.0429 19.6606 10.0429 16.4194C10.0429 13.1784 12.6763 10.5511 15.9249 10.5511C19.1732 10.5511 21.8062 13.1781 21.8062 16.4194Z"/>
<path d="M37.0556 16.4803L37.0573 16.3379C37.0573 16.2312 37.0585 16.1273 37.0556 16.0191L37.0303 15.1788L33.2654 15.1803L32.0063 15.2404L32.0021 17.0138C31.883 19.8086 30.8032 22.2372 28.7922 24.2325C26.6595 26.3599 24.0514 27.4395 21.0406 27.4395H19.7387L19.7399 32.4499L20.7354 32.4851C20.8361 32.4926 20.9381 32.4982 21.0415 32.4982C21.1451 32.4982 21.2441 32.4926 21.342 32.4851L21.497 32.478C25.7224 32.3702 29.3843 30.8018 32.3804 27.8122C35.3754 24.8229 36.9493 21.163 37.0571 16.9319C37.0583 16.8451 37.0583 16.7598 37.0571 16.6266L37.0556 16.4803Z"/>
<path d="M8.28444 24.2326C6.15182 22.1039 5.0703 19.503 5.0703 16.4994C5.0703 13.4964 6.15303 10.8937 8.2873 8.76249C10.4203 6.6225 13.0271 5.53716 16.0366 5.53716C19.0458 5.53716 21.6542 6.62372 23.7899 8.76735C25.5931 10.5585 26.635 12.7151 26.9117 15.1765H31.9806C31.689 11.317 30.1486 7.95439 27.3751 5.18537C24.26 2.07691 20.4452 0.5 16.0366 0.5C11.6281 0.5 7.81272 2.07691 4.69761 5.18554C1.57987 8.29545 0 12.1018 0 16.4994C0 20.8963 1.57987 24.7031 4.69781 27.8131C7.6923 30.8009 11.3537 32.3711 15.5815 32.4788L16.4437 32.5V27.4591L15.6305 27.4331C12.7927 27.3419 10.3211 26.2636 8.28444 24.2326Z"/>
</mask>
<path fill-rule="evenodd" clip-rule="evenodd" d="M133.85 7.01998C133.428 7.01998 133.029 7.18746 132.769 7.46589C132.456 7.76422 132.29 8.15252 132.29 8.58819V25.2891C132.29 25.719 132.452 26.1094 132.737 26.3791C133.034 26.6942 133.42 26.8617 133.854 26.8617C134.281 26.8617 134.671 26.6974 134.939 26.4114C135.253 26.1126 135.419 25.7249 135.419 25.2891V8.58819C135.419 8.16328 135.257 7.77231 134.961 7.48635C134.675 7.18962 134.271 7.01998 133.85 7.01998Z" fill="#BED8C0"/>
<path fill-rule="evenodd" clip-rule="evenodd" d="M129.148 2.19211C128.024 2.19211 127.108 3.11246 127.108 4.24392C127.108 5.37483 128.024 6.29572 129.148 6.29572C130.275 6.29572 131.191 5.37537 131.191 4.24392C131.191 3.11246 130.274 2.19211 129.148 2.19211Z" fill="#DFC35B"/>
<path fill-rule="evenodd" clip-rule="evenodd" d="M64.8588 14.5688C64.2743 15.1014 63.5857 15.3706 62.7605 15.3916L58.4393 15.3911V10.1226H62.6587C63.5075 10.1226 64.2411 10.393 64.8396 10.9261C65.4177 11.4415 65.6985 12.0403 65.6985 12.7566C65.6985 13.4599 65.4236 14.0528 64.8588 14.5688ZM66.9974 8.65942C65.8004 7.54359 64.3406 6.97759 62.6587 6.97759H56.8746C56.452 6.97759 56.0528 7.14561 55.7902 7.42834C55.4762 7.72615 55.3094 8.11444 55.3094 8.55011V18.5199L63.0461 18.5184C64.6251 18.4246 65.9896 17.8302 67.1015 16.752C68.2395 15.6383 68.8156 14.2946 68.8156 12.7566C68.8156 11.1604 68.2034 9.7828 66.9974 8.65942Z" fill="#D75B5B"/>
<path fill-rule="evenodd" clip-rule="evenodd" d="M216.153 16.8537C216.153 16.7886 216.153 16.7234 216.153 16.6566L216.136 16.1332L213.812 16.1343L213.035 16.1714L213.034 17.2743C212.959 19.0126 212.292 20.5217 211.051 21.7624C209.735 23.0856 208.125 23.7567 206.267 23.7567H205.464V26.872L206.078 26.8942C206.139 26.8984 206.203 26.9023 206.267 26.9023C206.331 26.9023 206.392 26.8984 206.452 26.8942L206.548 26.8898C209.156 26.8231 211.416 25.8467 213.266 23.9887C215.116 22.1303 216.087 19.8533 216.153 17.2232C216.155 17.1693 216.155 17.116 216.153 17.0336V16.8537Z" fill="#DFC35B"/>
<path fill-rule="evenodd" clip-rule="evenodd" d="M260.514 12.6867L262.689 17.9561H266.057L261.944 7.96697C261.867 7.79948 261.762 7.57115 261.538 7.37942C261.248 7.13225 260.837 7.00406 260.404 7.02938C260.071 7.04608 259.825 7.17533 259.667 7.27011C259.628 7.2938 259.584 7.32395 259.566 7.34012C259.358 7.4952 259.197 7.70416 259.074 7.98635L254.96 17.9561H258.339L260.514 12.6867Z" fill="#B196B9"/>
<path fill-rule="evenodd" clip-rule="evenodd" d="M90.2605 21.7543C88.9439 23.0774 87.3336 23.7491 85.4758 23.7491C83.618 23.7491 82.0084 23.0774 80.6913 21.7543C79.3747 20.4307 78.707 18.8128 78.707 16.9463C78.707 15.0781 79.3752 13.4604 80.6928 12.1356C82.0094 10.8049 83.6185 10.1301 85.4758 10.1301C87.3336 10.1301 88.9432 10.8054 90.262 12.1388C91.5862 13.4625 92.2576 15.0797 92.2576 16.9463C92.2576 18.8123 91.5862 20.429 90.262 21.7528L90.2605 21.7543ZM92.4751 9.91144C90.5524 7.9781 88.1969 6.99796 85.4758 6.99796C82.7542 6.99796 80.3997 7.9781 78.4761 9.91144C76.5524 11.8448 75.5766 14.2122 75.5766 16.9463C75.5766 19.6804 76.5529 22.0472 78.4761 23.9806C80.3997 25.9139 82.7542 26.894 85.4758 26.894C88.1969 26.894 90.5519 25.9139 92.4751 23.9806C94.3994 22.0472 95.3747 19.681 95.3747 16.9463C95.3747 14.2122 94.3994 11.8448 92.4751 9.91144Z" fill="white"/>
<path fill-rule="evenodd" clip-rule="evenodd" d="M112.816 10.1102C113.71 10.1102 114.511 10.2804 115.196 10.6175C115.934 10.9724 116.373 11.4571 116.539 12.098C116.641 12.5116 116.893 12.8514 117.239 13.0501C117.606 13.2774 118.032 13.3366 118.429 13.2219C118.84 13.118 119.165 12.8761 119.4 12.4949C119.606 12.1308 119.658 11.7355 119.555 11.3155C119.167 9.82697 118.23 8.68152 116.77 7.91357C115.608 7.29264 114.278 6.97759 112.816 6.97759C111.102 6.97759 109.61 7.55006 108.381 8.67936C107.131 9.81781 106.458 11.2336 106.381 12.8875C106.32 14.2726 106.786 15.5042 107.765 16.5468C108.947 17.814 110.691 18.4694 112.949 18.4978L113.096 18.4995C114.422 18.534 115.381 18.8598 115.95 19.472C116.337 19.8798 116.514 20.3267 116.491 20.8363C116.451 21.6478 116.123 22.3188 115.49 22.8886C114.851 23.4627 114.07 23.7534 113.171 23.7534C112.273 23.7534 111.473 23.5876 110.796 23.2629C110.055 22.8994 109.614 22.4076 109.445 21.7555C109.341 21.3537 109.097 21.0317 108.709 20.7931C108.342 20.5933 107.942 20.5411 107.559 20.6418C107.146 20.7457 106.818 20.9913 106.58 21.3833C106.378 21.7544 106.327 22.147 106.431 22.5493C106.819 24.0372 107.757 25.1859 109.22 25.9646C110.381 26.5765 111.71 26.8867 113.172 26.8867C114.885 26.8867 116.377 26.3142 117.606 25.1854C118.856 24.0458 119.525 22.6307 119.593 20.9821C119.663 19.5922 119.202 18.3628 118.223 17.3298C117.048 16.0713 115.316 15.411 113.076 15.3658L113.018 15.3459L112.944 15.3653C111.591 15.3389 110.613 15.0125 110.036 14.391C109.65 13.9855 109.473 13.5434 109.497 13.0388C109.537 12.2202 109.864 11.5449 110.498 10.9757C111.138 10.4016 111.917 10.1102 112.816 10.1102Z" fill="white"/>
<path fill-rule="evenodd" clip-rule="evenodd" d="M160.064 7.00387L150.023 6.97801C149.622 6.96832 149.207 7.12611 148.906 7.42822C148.593 7.72657 148.427 8.11432 148.427 8.55107V25.3274C148.427 25.7572 148.59 26.1486 148.875 26.4185C149.171 26.733 149.557 26.9 149.991 26.9C150.419 26.9 150.808 26.7362 151.076 26.4497C151.39 26.1513 151.556 25.7642 151.556 25.3274V18.5118H157.716C158.144 18.5118 158.532 18.348 158.801 18.0615C159.115 17.7632 159.281 17.376 159.281 16.9392C159.281 16.5149 159.113 16.1137 158.833 15.8493C158.536 15.5337 158.149 15.3667 157.716 15.3667H151.556V10.1257L160.063 10.1494C160.488 10.1494 160.868 9.99326 161.162 9.6976C161.467 9.39333 161.628 9.00612 161.628 8.57691C161.628 8.1574 161.471 7.77827 161.179 7.48586C160.883 7.17026 160.497 7.00439 160.064 7.00387Z" fill="white"/>
<path fill-rule="evenodd" clip-rule="evenodd" d="M182.608 23.7643H175.18V8.61112C175.18 8.17762 175.028 7.80549 174.728 7.50553C174.44 7.2131 174.046 7.05153 173.622 7.05153C173.204 7.05153 172.8 7.21688 172.513 7.50445C172.213 7.80549 172.062 8.17762 172.062 8.61112V25.324C172.062 25.7489 172.217 26.1269 172.53 26.4591C172.837 26.7495 173.206 26.8965 173.627 26.8965H182.608C183.041 26.8965 183.41 26.7446 183.71 26.443C184.013 26.1388 184.173 25.7516 184.173 25.324C184.173 24.905 184.013 24.5221 183.71 24.2173C183.41 23.9163 183.039 23.7643 182.608 23.7643Z" fill="white"/>
<path fill-rule="evenodd" clip-rule="evenodd" d="M233.097 10.1509C233.934 10.1509 234.66 10.4207 235.251 10.9544C235.821 11.4617 236.097 12.0524 236.097 12.7595C236.097 13.4537 235.826 14.0375 235.27 14.5458L235.266 14.5491C234.692 15.0774 234.01 15.3418 233.184 15.3558H228.913V10.1509H233.097ZM235.16 18.1557C236.152 17.8304 237.012 17.2724 237.719 16.4959C238.703 15.4285 239.201 14.1721 239.201 12.7595C239.201 11.1725 238.593 9.8019 237.394 8.68444C236.205 7.58745 234.759 7.03116 233.095 7.03116H227.348C226.935 7.03116 226.566 7.18193 226.248 7.48405C225.95 7.78509 225.796 8.15722 225.796 8.59075V25.2141C225.796 25.6316 225.951 26.0064 226.265 26.3376C226.878 26.9214 227.86 26.9143 228.449 26.3215C228.758 26.0128 228.913 25.6397 228.913 25.2141V18.489H231.847L235.541 26.0252C235.811 26.5826 236.319 26.9019 236.937 26.9019C237.182 26.9019 237.414 26.8476 237.628 26.7398C238.005 26.5493 238.268 26.2497 238.408 25.8492C238.546 25.4463 238.521 25.0327 238.332 24.6557L235.16 18.1557Z" fill="white"/>
<path fill-rule="evenodd" clip-rule="evenodd" d="M198.396 21.7614C197.079 20.4383 196.412 18.8204 196.412 16.9529C196.412 15.0863 197.079 13.468 198.396 12.1427C199.715 10.8114 201.324 10.1372 203.18 10.1372C205.038 10.1372 206.649 10.8125 207.967 12.1459C209.079 13.2585 209.723 14.6 209.894 16.13H213.024C212.844 13.7303 211.894 11.6402 210.179 9.918C208.257 7.98465 205.902 7.00454 203.18 7.00454C200.458 7.00454 198.103 7.98465 196.181 9.918C194.256 11.8519 193.281 14.2182 193.281 16.9523C193.281 19.6865 194.256 22.0533 196.181 23.9872C198.029 25.8445 200.29 26.8214 202.899 26.8888L203.431 26.9016V23.7675L202.929 23.7508C201.177 23.6948 199.653 23.0253 198.396 21.7614Z" fill="white"/>
<path fill-rule="evenodd" clip-rule="evenodd" d="M52.2177 18.5193V25.3174C52.2177 25.748 52.3811 26.1396 52.6646 26.4068C52.9614 26.7229 53.3478 26.8893 53.7824 26.8893C54.2106 26.8893 54.5995 26.7256 54.867 26.4391C55.181 26.1413 55.3471 25.7535 55.3471 25.3167V18.5193H52.2177Z" fill="white"/>
<path fill-rule="evenodd" clip-rule="evenodd" d="M265.5 24.7218L262.714 17.961H259.337L260.076 19.7544L260.196 20.0458H254.129L254.875 18.2304L254.986 17.961H251.609L248.828 24.7122C248.656 25.1095 248.651 25.5415 248.816 25.9141C248.972 26.3164 249.269 26.6211 249.638 26.7639L249.779 26.8281L250.261 26.9002C250.928 26.9002 251.454 26.5463 251.703 25.9314L252.948 22.9215H261.377L262.62 25.925C262.871 26.5448 263.396 26.9002 264.062 26.9002C264.276 26.9002 264.49 26.8555 264.648 26.7805C265.042 26.625 265.352 26.3164 265.495 25.9442C265.669 25.5495 265.67 25.1161 265.5 24.7218Z" fill="white"/>
<path d="M21.8062 16.4194C21.8062 19.6606 19.1732 22.2877 15.9249 22.2877C12.6763 22.2877 10.0429 19.6606 10.0429 16.4194C10.0429 13.1784 12.6763 10.5511 15.9249 10.5511C19.1732 10.5511 21.8062 13.1781 21.8062 16.4194Z" fill="#E87595"/>
<path d="M37.0556 16.4803L37.0573 16.3379C37.0573 16.2312 37.0585 16.1273 37.0556 16.0191L37.0303 15.1788L33.2654 15.1803L32.0063 15.2404L32.0021 17.0138C31.883 19.8086 30.8032 22.2372 28.7922 24.2325C26.6595 26.3599 24.0514 27.4395 21.0406 27.4395H19.7387L19.7399 32.4499L20.7354 32.4851C20.8361 32.4926 20.9381 32.4982 21.0415 32.4982C21.1451 32.4982 21.2441 32.4926 21.342 32.4851L21.497 32.478C25.7224 32.3702 29.3843 30.8018 32.3804 27.8122C35.3754 24.8229 36.9493 21.163 37.0571 16.9319C37.0583 16.8451 37.0583 16.7598 37.0571 16.6266L37.0556 16.4803Z" fill="#FBB36C"/>
<path d="M8.28444 24.2326C6.15182 22.1039 5.0703 19.503 5.0703 16.4994C5.0703 13.4964 6.15303 10.8937 8.2873 8.76249C10.4203 6.6225 13.0271 5.53716 16.0366 5.53716C19.0458 5.53716 21.6542 6.62372 23.7899 8.76735C25.5931 10.5585 26.635 12.7151 26.9117 15.1765H31.9806C31.689 11.317 30.1486 7.95439 27.3751 5.18537C24.26 2.07691 20.4452 0.5 16.0366 0.5C11.6281 0.5 7.81272 2.07691 4.69761 5.18554C1.57987 8.29545 0 12.1018 0 16.4994C0 20.8963 1.57987 24.7031 4.69781 27.8131C7.6923 30.8009 11.3537 32.3711 15.5815 32.4788L16.4437 32.5V27.4591L15.6305 27.4331C12.7927 27.3419 10.3211 26.2636 8.28444 24.2326Z" fill="#00AAB2"/>
<path fill-rule="evenodd" clip-rule="evenodd" d="M133.85 7.01998C133.428 7.01998 133.029 7.18746 132.769 7.46589C132.456 7.76422 132.29 8.15252 132.29 8.58819V25.2891C132.29 25.719 132.452 26.1094 132.737 26.3791C133.034 26.6942 133.42 26.8617 133.854 26.8617C134.281 26.8617 134.671 26.6974 134.939 26.4114C135.253 26.1126 135.419 25.7249 135.419 25.2891V8.58819C135.419 8.16328 135.257 7.77231 134.961 7.48635C134.675 7.18962 134.271 7.01998 133.85 7.01998Z" stroke="white" stroke-opacity="0.4" mask="url(#path-1-inside-1_5221_11115)"/>
<path fill-rule="evenodd" clip-rule="evenodd" d="M129.148 2.19211C128.024 2.19211 127.108 3.11246 127.108 4.24392C127.108 5.37483 128.024 6.29572 129.148 6.29572C130.275 6.29572 131.191 5.37537 131.191 4.24392C131.191 3.11246 130.274 2.19211 129.148 2.19211Z" stroke="white" stroke-opacity="0.4" mask="url(#path-1-inside-1_5221_11115)"/>
<path fill-rule="evenodd" clip-rule="evenodd" d="M64.8588 14.5688C64.2743 15.1014 63.5857 15.3706 62.7605 15.3916L58.4393 15.3911V10.1226H62.6587C63.5075 10.1226 64.2411 10.393 64.8396 10.9261C65.4177 11.4415 65.6985 12.0403 65.6985 12.7566C65.6985 13.4599 65.4236 14.0528 64.8588 14.5688ZM66.9974 8.65942C65.8004 7.54359 64.3406 6.97759 62.6587 6.97759H56.8746C56.452 6.97759 56.0528 7.14561 55.7902 7.42834C55.4762 7.72615 55.3094 8.11444 55.3094 8.55011V18.5199L63.0461 18.5184C64.6251 18.4246 65.9896 17.8302 67.1015 16.752C68.2395 15.6383 68.8156 14.2946 68.8156 12.7566C68.8156 11.1604 68.2034 9.7828 66.9974 8.65942Z" stroke="white" stroke-opacity="0.4" mask="url(#path-1-inside-1_5221_11115)"/>
<path fill-rule="evenodd" clip-rule="evenodd" d="M216.153 16.8537C216.153 16.7886 216.153 16.7234 216.153 16.6566L216.136 16.1332L213.812 16.1343L213.035 16.1714L213.034 17.2743C212.959 19.0126 212.292 20.5217 211.051 21.7624C209.735 23.0856 208.125 23.7567 206.267 23.7567H205.464V26.872L206.078 26.8942C206.139 26.8984 206.203 26.9023 206.267 26.9023C206.331 26.9023 206.392 26.8984 206.452 26.8942L206.548 26.8898C209.156 26.8231 211.416 25.8467 213.266 23.9887C215.116 22.1303 216.087 19.8533 216.153 17.2232C216.155 17.1693 216.155 17.116 216.153 17.0336V16.8537Z" stroke="white" stroke-opacity="0.4" mask="url(#path-1-inside-1_5221_11115)"/>
<path fill-rule="evenodd" clip-rule="evenodd" d="M260.514 12.6867L262.689 17.9561H266.057L261.944 7.96697C261.867 7.79948 261.762 7.57115 261.538 7.37942C261.248 7.13225 260.837 7.00406 260.404 7.02938C260.071 7.04608 259.825 7.17533 259.667 7.27011C259.628 7.2938 259.584 7.32395 259.566 7.34012C259.358 7.4952 259.197 7.70416 259.074 7.98635L254.96 17.9561H258.339L260.514 12.6867Z" stroke="white" stroke-opacity="0.4" mask="url(#path-1-inside-1_5221_11115)"/>
<path fill-rule="evenodd" clip-rule="evenodd" d="M90.2605 21.7543C88.9439 23.0774 87.3336 23.7491 85.4758 23.7491C83.618 23.7491 82.0084 23.0774 80.6913 21.7543C79.3747 20.4307 78.707 18.8128 78.707 16.9463C78.707 15.0781 79.3752 13.4604 80.6928 12.1356C82.0094 10.8049 83.6185 10.1301 85.4758 10.1301C87.3336 10.1301 88.9432 10.8054 90.262 12.1388C91.5862 13.4625 92.2576 15.0797 92.2576 16.9463C92.2576 18.8123 91.5862 20.429 90.262 21.7528L90.2605 21.7543ZM92.4751 9.91144C90.5524 7.9781 88.1969 6.99796 85.4758 6.99796C82.7542 6.99796 80.3997 7.9781 78.4761 9.91144C76.5524 11.8448 75.5766 14.2122 75.5766 16.9463C75.5766 19.6804 76.5529 22.0472 78.4761 23.9806C80.3997 25.9139 82.7542 26.894 85.4758 26.894C88.1969 26.894 90.5519 25.9139 92.4751 23.9806C94.3994 22.0472 95.3747 19.681 95.3747 16.9463C95.3747 14.2122 94.3994 11.8448 92.4751 9.91144Z" stroke="white" stroke-opacity="0.4" mask="url(#path-1-inside-1_5221_11115)"/>
<path fill-rule="evenodd" clip-rule="evenodd" d="M112.816 10.1102C113.71 10.1102 114.511 10.2804 115.196 10.6175C115.934 10.9724 116.373 11.4571 116.539 12.098C116.641 12.5116 116.893 12.8514 117.239 13.0501C117.606 13.2774 118.032 13.3366 118.429 13.2219C118.84 13.118 119.165 12.8761 119.4 12.4949C119.606 12.1308 119.658 11.7355 119.555 11.3155C119.167 9.82697 118.23 8.68152 116.77 7.91357C115.608 7.29264 114.278 6.97759 112.816 6.97759C111.102 6.97759 109.61 7.55006 108.381 8.67936C107.131 9.81781 106.458 11.2336 106.381 12.8875C106.32 14.2726 106.786 15.5042 107.765 16.5468C108.947 17.814 110.691 18.4694 112.949 18.4978L113.096 18.4995C114.422 18.534 115.381 18.8598 115.95 19.472C116.337 19.8798 116.514 20.3267 116.491 20.8363C116.451 21.6478 116.123 22.3188 115.49 22.8886C114.851 23.4627 114.07 23.7534 113.171 23.7534C112.273 23.7534 111.473 23.5876 110.796 23.2629C110.055 22.8994 109.614 22.4076 109.445 21.7555C109.341 21.3537 109.097 21.0317 108.709 20.7931C108.342 20.5933 107.942 20.5411 107.559 20.6418C107.146 20.7457 106.818 20.9913 106.58 21.3833C106.378 21.7544 106.327 22.147 106.431 22.5493C106.819 24.0372 107.757 25.1859 109.22 25.9646C110.381 26.5765 111.71 26.8867 113.172 26.8867C114.885 26.8867 116.377 26.3142 117.606 25.1854C118.856 24.0458 119.525 22.6307 119.593 20.9821C119.663 19.5922 119.202 18.3628 118.223 17.3298C117.048 16.0713 115.316 15.411 113.076 15.3658L113.018 15.3459L112.944 15.3653C111.591 15.3389 110.613 15.0125 110.036 14.391C109.65 13.9855 109.473 13.5434 109.497 13.0388C109.537 12.2202 109.864 11.5449 110.498 10.9757C111.138 10.4016 111.917 10.1102 112.816 10.1102Z" stroke="white" stroke-opacity="0.4" mask="url(#path-1-inside-1_5221_11115)"/>
<path fill-rule="evenodd" clip-rule="evenodd" d="M160.064 7.00387L150.023 6.97801C149.622 6.96832 149.207 7.12611 148.906 7.42822C148.593 7.72657 148.427 8.11432 148.427 8.55107V25.3274C148.427 25.7572 148.59 26.1486 148.875 26.4185C149.171 26.733 149.557 26.9 149.991 26.9C150.419 26.9 150.808 26.7362 151.076 26.4497C151.39 26.1513 151.556 25.7642 151.556 25.3274V18.5118H157.716C158.144 18.5118 158.532 18.348 158.801 18.0615C159.115 17.7632 159.281 17.376 159.281 16.9392C159.281 16.5149 159.113 16.1137 158.833 15.8493C158.536 15.5337 158.149 15.3667 157.716 15.3667H151.556V10.1257L160.063 10.1494C160.488 10.1494 160.868 9.99326 161.162 9.6976C161.467 9.39333 161.628 9.00612 161.628 8.57691C161.628 8.1574 161.471 7.77827 161.179 7.48586C160.883 7.17026 160.497 7.00439 160.064 7.00387Z" stroke="white" stroke-opacity="0.4" mask="url(#path-1-inside-1_5221_11115)"/>
<path fill-rule="evenodd" clip-rule="evenodd" d="M182.608 23.7643H175.18V8.61112C175.18 8.17762 175.028 7.80549 174.728 7.50553C174.44 7.2131 174.046 7.05153 173.622 7.05153C173.204 7.05153 172.8 7.21688 172.513 7.50445C172.213 7.80549 172.062 8.17762 172.062 8.61112V25.324C172.062 25.7489 172.217 26.1269 172.53 26.4591C172.837 26.7495 173.206 26.8965 173.627 26.8965H182.608C183.041 26.8965 183.41 26.7446 183.71 26.443C184.013 26.1388 184.173 25.7516 184.173 25.324C184.173 24.905 184.013 24.5221 183.71 24.2173C183.41 23.9163 183.039 23.7643 182.608 23.7643Z" stroke="white" stroke-opacity="0.4" mask="url(#path-1-inside-1_5221_11115)"/>
<path fill-rule="evenodd" clip-rule="evenodd" d="M233.097 10.1509C233.934 10.1509 234.66 10.4207 235.251 10.9544C235.821 11.4617 236.097 12.0524 236.097 12.7595C236.097 13.4537 235.826 14.0375 235.27 14.5458L235.266 14.5491C234.692 15.0774 234.01 15.3418 233.184 15.3558H228.913V10.1509H233.097ZM235.16 18.1557C236.152 17.8304 237.012 17.2724 237.719 16.4959C238.703 15.4285 239.201 14.1721 239.201 12.7595C239.201 11.1725 238.593 9.8019 237.394 8.68444C236.205 7.58745 234.759 7.03116 233.095 7.03116H227.348C226.935 7.03116 226.566 7.18193 226.248 7.48405C225.95 7.78509 225.796 8.15722 225.796 8.59075V25.2141C225.796 25.6316 225.951 26.0064 226.265 26.3376C226.878 26.9214 227.86 26.9143 228.449 26.3215C228.758 26.0128 228.913 25.6397 228.913 25.2141V18.489H231.847L235.541 26.0252C235.811 26.5826 236.319 26.9019 236.937 26.9019C237.182 26.9019 237.414 26.8476 237.628 26.7398C238.005 26.5493 238.268 26.2497 238.408 25.8492C238.546 25.4463 238.521 25.0327 238.332 24.6557L235.16 18.1557Z" stroke="white" stroke-opacity="0.4" mask="url(#path-1-inside-1_5221_11115)"/>
<path fill-rule="evenodd" clip-rule="evenodd" d="M198.396 21.7614C197.079 20.4383 196.412 18.8204 196.412 16.9529C196.412 15.0863 197.079 13.468 198.396 12.1427C199.715 10.8114 201.324 10.1372 203.18 10.1372C205.038 10.1372 206.649 10.8125 207.967 12.1459C209.079 13.2585 209.723 14.6 209.894 16.13H213.024C212.844 13.7303 211.894 11.6402 210.179 9.918C208.257 7.98465 205.902 7.00454 203.18 7.00454C200.458 7.00454 198.103 7.98465 196.181 9.918C194.256 11.8519 193.281 14.2182 193.281 16.9523C193.281 19.6865 194.256 22.0533 196.181 23.9872C198.029 25.8445 200.29 26.8214 202.899 26.8888L203.431 26.9016V23.7675L202.929 23.7508C201.177 23.6948 199.653 23.0253 198.396 21.7614Z" stroke="white" stroke-opacity="0.4" mask="url(#path-1-inside-1_5221_11115)"/>
<path fill-rule="evenodd" clip-rule="evenodd" d="M52.2177 18.5193V25.3174C52.2177 25.748 52.3811 26.1396 52.6646 26.4068C52.9614 26.7229 53.3478 26.8893 53.7824 26.8893C54.2106 26.8893 54.5995 26.7256 54.867 26.4391C55.181 26.1413 55.3471 25.7535 55.3471 25.3167V18.5193H52.2177Z" stroke="white" stroke-opacity="0.4" mask="url(#path-1-inside-1_5221_11115)"/>
<path fill-rule="evenodd" clip-rule="evenodd" d="M265.5 24.7218L262.714 17.961H259.337L260.076 19.7544L260.196 20.0458H254.129L254.875 18.2304L254.986 17.961H251.609L248.828 24.7122C248.656 25.1095 248.651 25.5415 248.816 25.9141C248.972 26.3164 249.269 26.6211 249.638 26.7639L249.779 26.8281L250.261 26.9002C250.928 26.9002 251.454 26.5463 251.703 25.9314L252.948 22.9215H261.377L262.62 25.925C262.871 26.5448 263.396 26.9002 264.062 26.9002C264.276 26.9002 264.49 26.8555 264.648 26.7805C265.042 26.625 265.352 26.3164 265.495 25.9442C265.669 25.5495 265.67 25.1161 265.5 24.7218Z" stroke="white" stroke-opacity="0.4" mask="url(#path-1-inside-1_5221_11115)"/>
<path d="M21.8062 16.4194C21.8062 19.6606 19.1732 22.2877 15.9249 22.2877C12.6763 22.2877 10.0429 19.6606 10.0429 16.4194C10.0429 13.1784 12.6763 10.5511 15.9249 10.5511C19.1732 10.5511 21.8062 13.1781 21.8062 16.4194Z" stroke="white" stroke-opacity="0.4" mask="url(#path-1-inside-1_5221_11115)"/>
<path d="M37.0556 16.4803L37.0573 16.3379C37.0573 16.2312 37.0585 16.1273 37.0556 16.0191L37.0303 15.1788L33.2654 15.1803L32.0063 15.2404L32.0021 17.0138C31.883 19.8086 30.8032 22.2372 28.7922 24.2325C26.6595 26.3599 24.0514 27.4395 21.0406 27.4395H19.7387L19.7399 32.4499L20.7354 32.4851C20.8361 32.4926 20.9381 32.4982 21.0415 32.4982C21.1451 32.4982 21.2441 32.4926 21.342 32.4851L21.497 32.478C25.7224 32.3702 29.3843 30.8018 32.3804 27.8122C35.3754 24.8229 36.9493 21.163 37.0571 16.9319C37.0583 16.8451 37.0583 16.7598 37.0571 16.6266L37.0556 16.4803Z" stroke="white" stroke-opacity="0.4" mask="url(#path-1-inside-1_5221_11115)"/>
<path d="M8.28444 24.2326C6.15182 22.1039 5.0703 19.503 5.0703 16.4994C5.0703 13.4964 6.15303 10.8937 8.2873 8.76249C10.4203 6.6225 13.0271 5.53716 16.0366 5.53716C19.0458 5.53716 21.6542 6.62372 23.7899 8.76735C25.5931 10.5585 26.635 12.7151 26.9117 15.1765H31.9806C31.689 11.317 30.1486 7.95439 27.3751 5.18537C24.26 2.07691 20.4452 0.5 16.0366 0.5C11.6281 0.5 7.81272 2.07691 4.69761 5.18554C1.57987 8.29545 0 12.1018 0 16.4994C0 20.8963 1.57987 24.7031 4.69781 27.8131C7.6923 30.8009 11.3537 32.3711 15.5815 32.4788L16.4437 32.5V27.4591L15.6305 27.4331C12.7927 27.3419 10.3211 26.2636 8.28444 24.2326Z" stroke="white" stroke-opacity="0.4" mask="url(#path-1-inside-1_5221_11115)"/>
</svg>
