<svg width="50" height="50" viewBox="0 0 50 50" fill="none" xmlns="http://www.w3.org/2000/svg">
<g clip-path="url(#clip0_5221_10974)">
<rect width="50" height="50" rx="16" fill="#FF95F0"/>
<mask id="mask0_5221_10974" style="mask-type:alpha" maskUnits="userSpaceOnUse" x="16" y="16" width="18" height="18">
<rect x="16.667" y="16.6667" width="16.6667" height="16.6667" fill="#D9D9D9"/>
</mask>
<g mask="url(#mask0_5221_10974)">
<path d="M25.0001 31.9446C24.051 31.9446 23.154 31.7621 22.3091 31.3973C21.4642 31.033 20.7265 30.5353 20.0959 29.9043C19.4649 29.2737 18.9672 28.536 18.6029 27.6911C18.2381 26.8462 18.0557 25.9492 18.0557 25.0001C18.0557 24.0395 18.2381 23.1397 18.6029 22.3008C18.9672 21.4615 19.4649 20.7265 20.0959 20.0959C20.7265 19.4649 21.4642 18.967 22.3091 18.6022C23.154 18.2378 24.051 18.0557 25.0001 18.0557C25.22 18.0557 25.4341 18.0672 25.6425 18.0904C25.8508 18.1135 26.0591 18.1425 26.2675 18.1772V22.0487C26.1286 21.5742 25.952 21.1256 25.7376 20.7029C25.5237 20.2807 25.2779 19.8728 25.0001 19.4793C24.6992 19.8959 24.4388 20.33 24.2189 20.7814C23.999 21.2327 23.8196 21.7131 23.6807 22.2223H26.2675V23.6112H23.3682C23.3334 23.8427 23.3075 24.0714 23.2904 24.2973C23.2728 24.5228 23.264 24.7571 23.264 25.0001C23.264 25.2432 23.2728 25.4774 23.2904 25.7029C23.3075 25.9288 23.3334 26.1575 23.3682 26.389H26.6321C26.6668 26.1575 26.6929 25.9288 26.7105 25.7029C26.7277 25.4774 26.7362 25.2432 26.7362 25.0001C26.7362 24.7571 26.7277 24.5228 26.7105 24.2973C26.6929 24.0714 26.6668 23.8427 26.6321 23.6112H28.0209C28.0557 23.8427 28.0816 24.0714 28.0987 24.2973C28.1163 24.5228 28.1251 24.7571 28.1251 25.0001C28.1251 25.2432 28.1163 25.4774 28.0987 25.7029C28.0816 25.9288 28.0557 26.1575 28.0209 26.389H30.3821C30.4399 26.1575 30.4834 25.9288 30.5126 25.7029C30.5413 25.4774 30.5557 25.2432 30.5557 25.0001C30.5557 24.7571 30.5413 24.5228 30.5126 24.2973C30.4834 24.0714 30.4399 23.8427 30.3821 23.6112H31.8057C31.852 23.8427 31.8867 24.0742 31.9098 24.3057C31.933 24.5371 31.9446 24.7686 31.9446 25.0001C31.9446 25.9492 31.7621 26.8462 31.3973 27.6911C31.033 28.536 30.5353 29.2737 29.9043 29.9043C29.2737 30.5353 28.5388 31.033 27.6994 31.3973C26.8605 31.7621 25.9608 31.9446 25.0001 31.9446ZM19.6182 26.389H21.9793C21.9446 26.1575 21.9184 25.9288 21.9008 25.7029C21.8837 25.4774 21.8751 25.2432 21.8751 25.0001C21.8751 24.7571 21.8837 24.5228 21.9008 24.2973C21.9184 24.0714 21.9446 23.8427 21.9793 23.6112H19.6182C19.5603 23.8427 19.5168 24.0714 19.4876 24.2973C19.4589 24.5228 19.4446 24.7571 19.4446 25.0001C19.4446 25.2432 19.4589 25.4774 19.4876 25.7029C19.5168 25.9288 19.5603 26.1575 19.6182 26.389ZM23.1946 30.2432C22.9862 29.8612 22.804 29.4647 22.648 29.0536C22.4915 28.6429 22.3612 28.2177 22.2571 27.7779H20.2084C20.5441 28.3566 20.9635 28.8601 21.4668 29.2883C21.9705 29.7165 22.5464 30.0348 23.1946 30.2432ZM20.2084 22.2223H22.2571C22.3612 21.7825 22.4915 21.3571 22.648 20.9459C22.804 20.5353 22.9862 20.139 23.1946 19.7571C22.5464 19.9654 21.9705 20.2837 21.4668 20.7119C20.9635 21.1402 20.5441 21.6436 20.2084 22.2223ZM25.0001 30.5209C25.301 30.1043 25.5615 29.6702 25.7814 29.2189C26.0013 28.7675 26.1807 28.2871 26.3196 27.7779H23.6807C23.8196 28.2871 23.999 28.7675 24.2189 29.2189C24.4388 29.6702 24.6992 30.1043 25.0001 30.5209ZM26.8057 30.2432C27.4538 30.0348 28.0295 29.7165 28.5327 29.2883C29.0364 28.8601 29.4561 28.3566 29.7918 27.7779H27.7432C27.639 28.2177 27.5089 28.6429 27.3529 29.0536C27.1964 29.4647 27.014 29.8612 26.8057 30.2432ZM27.7779 22.2223V18.0557H31.9446V22.2223H27.7779ZM29.8612 20.139H31.2501V18.7501H29.8612V20.139Z" fill="#062526"/>
</g>
</g>
<defs>
<clipPath id="clip0_5221_10974">
<rect width="50" height="50" fill="white"/>
</clipPath>
</defs>
</svg>
