<svg width="50" height="50" viewBox="0 0 50 50" fill="none" xmlns="http://www.w3.org/2000/svg">
<g clip-path="url(#clip0_5221_10965)">
<rect width="50" height="50" rx="16" fill="#BED8C0"/>
<mask id="mask0_5221_10965" style="mask-type:alpha" maskUnits="userSpaceOnUse" x="16" y="16" width="18" height="18">
<rect x="16.667" y="16.6667" width="16.6667" height="16.6667" fill="#D9D9D9"/>
</mask>
<g mask="url(#mask0_5221_10965)">
<path d="M19.4443 30.5557V29.1668H21.3367C20.7464 28.6575 20.2835 28.0441 19.9478 27.3265C19.6122 26.6089 19.4443 25.8335 19.4443 25.0001C19.4443 23.7038 19.8379 22.5608 20.6249 21.571C21.4119 20.5816 22.4073 19.9307 23.611 19.6182V21.0765C22.8008 21.3659 22.1353 21.8663 21.6145 22.5779C21.0936 23.29 20.8332 24.0974 20.8332 25.0001C20.8332 25.6251 20.9575 26.2011 21.2061 26.7279C21.4552 27.2543 21.7939 27.7085 22.2221 28.0904V26.389H23.611V30.5557H19.4443ZM27.0832 30.5557C26.5045 30.5557 26.0126 30.3531 25.6075 29.9481C25.2024 29.543 24.9999 29.0511 24.9999 28.4724C24.9999 27.9168 25.1909 27.4395 25.5728 27.0404C25.9548 26.6409 26.4235 26.4295 26.9791 26.4064C27.1758 25.9897 27.4682 25.6511 27.8561 25.3904C28.2436 25.1302 28.6804 25.0001 29.1666 25.0001C29.78 25.0001 30.3096 25.1999 30.7554 25.5994C31.2008 25.9985 31.4698 26.4932 31.5624 27.0835C32.0485 27.0835 32.4652 27.2513 32.8124 27.5869C33.1596 27.9226 33.3332 28.3277 33.3332 28.8022C33.3332 29.2883 33.1654 29.702 32.8298 30.0432C32.4941 30.3849 32.0832 30.5557 31.5971 30.5557H27.0832ZM29.0971 24.3057C29.0161 23.8312 28.8598 23.3913 28.6284 22.9862C28.3969 22.5812 28.1133 22.2224 27.7777 21.9099V23.6112H26.3888V19.4446H30.5554V20.8335H28.6631C29.1608 21.2733 29.5689 21.7883 29.8874 22.3786C30.2054 22.9689 30.4108 23.6112 30.5034 24.3057H29.0971ZM27.0832 29.1668H31.5971C31.6897 29.1668 31.7707 29.1321 31.8402 29.0626C31.9096 28.9932 31.9443 28.9122 31.9443 28.8196C31.9443 28.727 31.9096 28.646 31.8402 28.5765C31.7707 28.5071 31.6897 28.4724 31.5971 28.4724H30.3818V27.6043C30.3818 27.2687 30.2633 26.9821 30.0263 26.7446C29.7888 26.5075 29.5022 26.389 29.1666 26.389C28.8309 26.389 28.5446 26.5075 28.3075 26.7446C28.07 26.9821 27.9513 27.2687 27.9513 27.6043V27.7779H27.0832C26.8865 27.7779 26.7217 27.8446 26.5888 27.9779C26.4554 28.1108 26.3888 28.2756 26.3888 28.4724C26.3888 28.6691 26.4554 28.8339 26.5888 28.9668C26.7217 29.1001 26.8865 29.1668 27.0832 29.1668Z" fill="#062526"/>
</g>
</g>
<defs>
<clipPath id="clip0_5221_10965">
<rect width="50" height="50" fill="white"/>
</clipPath>
</defs>
</svg>
