<svg width="21" height="20" viewBox="0 0 21 20" fill="none" xmlns="http://www.w3.org/2000/svg">
<g clip-path="url(#clip0_5221_11142)">
<path fill-rule="evenodd" clip-rule="evenodd" d="M20.5 10C20.5 15.5228 16.0228 20 10.5 20C4.97715 20 0.5 15.5228 0.5 10C0.5 4.47715 4.97715 0 10.5 0C16.0228 0 20.5 4.47715 20.5 10ZM10.8583 7.3824C9.88564 7.78696 7.94172 8.62429 5.02652 9.8944C4.55313 10.0826 4.30515 10.2668 4.28258 10.4469C4.24443 10.7512 4.62553 10.871 5.1445 11.0342C5.21509 11.0564 5.28823 11.0794 5.36322 11.1038C5.8738 11.2698 6.56063 11.4639 6.91768 11.4717C7.24156 11.4787 7.60304 11.3451 8.00214 11.0711C10.7259 9.23246 12.1319 8.30314 12.2202 8.2831C12.2825 8.26897 12.3688 8.2512 12.4272 8.30317C12.4857 8.35514 12.48 8.45356 12.4738 8.47997C12.436 8.64091 10.94 10.0317 10.1659 10.7514C9.92453 10.9758 9.75333 11.135 9.71834 11.1713C9.63994 11.2528 9.56004 11.3298 9.48325 11.4038C9.00891 11.8611 8.6532 12.204 9.50295 12.764C9.91131 13.0331 10.2381 13.2556 10.5641 13.4776C10.9201 13.72 11.2752 13.9619 11.7346 14.263C11.8517 14.3397 11.9635 14.4194 12.0723 14.4971C12.4867 14.7924 12.8589 15.0578 13.3188 15.0155C13.586 14.9909 13.862 14.7396 14.0022 13.9903C14.3335 12.2192 14.9846 8.38201 15.1351 6.80078C15.1483 6.66224 15.1317 6.48494 15.1184 6.40711C15.1051 6.32928 15.0772 6.21839 14.9761 6.1363C14.8563 6.03908 14.6713 6.01858 14.5886 6.02003C14.2125 6.02666 13.6354 6.22731 10.8583 7.3824Z" fill="white"/>
</g>
<defs>
<clipPath id="clip0_5221_11142">
<rect width="20" height="20" fill="white" transform="translate(0.5)"/>
</clipPath>
</defs>
</svg>
