<svg width="21" height="20" viewBox="0 0 21 20" fill="none" xmlns="http://www.w3.org/2000/svg">
<g clip-path="url(#clip0_5221_11138)">
<path fill-rule="evenodd" clip-rule="evenodd" d="M1.90345 1.40345C0.5 2.80689 0.5 5.06571 0.5 9.58333V10.4167C0.5 14.9343 0.5 17.1931 1.90345 18.5965C3.30689 20 5.56571 20 10.0833 20H10.9167C15.4343 20 17.6931 20 19.0965 18.5965C20.5 17.1931 20.5 14.9343 20.5 10.4167V9.58333C20.5 5.06571 20.5 2.80689 19.0965 1.40345C17.6931 0 15.4343 0 10.9167 0H10.0833C5.56571 0 3.30689 0 1.90345 1.40345ZM4.45716 6.25391H5.91582C6.28861 6.25391 6.42886 6.41703 6.56866 6.82086C7.28207 8.89853 8.48495 10.7143 8.97945 10.7143C9.16486 10.7143 9.24995 10.6289 9.24995 10.1581V8.01049C9.21646 7.39919 9.00286 7.13482 8.84464 6.93901C8.74694 6.81809 8.67036 6.72331 8.67036 6.58911C8.67036 6.42599 8.80978 6.25391 9.04153 6.25391H11.3337C11.6429 6.25391 11.7505 6.41916 11.7505 6.78999V9.67911C11.7505 9.98807 11.8847 10.0962 11.9774 10.0962C12.1629 10.0962 12.3174 9.98807 12.6574 9.6482C13.7082 8.47399 14.45 6.66632 14.45 6.66632C14.5427 6.45007 14.7137 6.25391 15.0846 6.25391H16.5433C16.9844 6.25391 17.0771 6.48095 16.9844 6.78999C16.7989 7.6397 15.0218 10.1426 15.0218 10.1426C14.8672 10.3898 14.8054 10.5134 15.0218 10.7915C15.098 10.8981 15.2605 11.0573 15.4465 11.2395C15.6378 11.4268 15.8539 11.6384 16.0263 11.8421C16.6529 12.5468 17.1251 13.1414 17.2566 13.5511C17.3768 13.9622 17.1684 14.1706 16.7517 14.1706H15.293C14.9023 14.1706 14.7056 13.9518 14.2805 13.479C14.1003 13.2786 13.8791 13.0326 13.5846 12.7382C12.7192 11.9039 12.3483 11.7957 12.1319 11.7957C11.8384 11.7957 11.7505 11.8789 11.7505 12.2956V13.6034C11.7505 13.9622 11.6358 14.1706 10.7086 14.1706C9.16324 14.1706 7.46499 13.2326 6.25961 11.5022C4.45156 8.96841 3.95703 7.05261 3.95703 6.66632C3.95703 6.45007 4.04039 6.25391 4.45716 6.25391Z" fill="white"/>
</g>
<defs>
<clipPath id="clip0_5221_11138">
<rect width="20" height="20" fill="white" transform="translate(0.5)"/>
</clipPath>
</defs>
</svg>
