<svg width="21" height="20" viewBox="0 0 21 20" fill="none" xmlns="http://www.w3.org/2000/svg">
<g clip-path="url(#clip0_5221_11146)">
<path d="M20.3008 6C20.3008 6 20.1055 4.62109 19.5039 4.01563C18.7422 3.21875 17.8906 3.21484 17.5 3.16797C14.7031 2.96484 10.5039 2.96484 10.5039 2.96484H10.4961C10.4961 2.96484 6.29688 2.96484 3.5 3.16797C3.10938 3.21484 2.25781 3.21875 1.49609 4.01563C0.894531 4.62109 0.703125 6 0.703125 6C0.703125 6 0.5 7.62109 0.5 9.23828V10.7539C0.5 12.3711 0.699219 13.9922 0.699219 13.9922C0.699219 13.9922 0.894531 15.3711 1.49219 15.9766C2.25391 16.7734 3.25391 16.7461 3.69922 16.832C5.30078 16.9844 10.5 17.0313 10.5 17.0313C10.5 17.0313 14.7031 17.0234 17.5 16.8242C17.8906 16.7773 18.7422 16.7734 19.5039 15.9766C20.1055 15.3711 20.3008 13.9922 20.3008 13.9922C20.3008 13.9922 20.5 12.375 20.5 10.7539V9.23828C20.5 7.62109 20.3008 6 20.3008 6ZM8.43359 12.5938V6.97266L13.8359 9.79297L8.43359 12.5938Z" fill="white"/>
</g>
<defs>
<clipPath id="clip0_5221_11146">
<rect width="20" height="20" fill="white" transform="translate(0.5)"/>
</clipPath>
</defs>
</svg>
